<?xml version="1.0" encoding="UTF-8"?>
<svg xmlns="http://www.w3.org/2000/svg" version="1.1" viewBox="0 0 220 60">
  <defs>
    <style>
      .cls-1 {
        fill: #1780c3;
      }
    </style>
  </defs>
  <!-- Generator: Adobe Illustrator 28.7.2, SVG Export Plug-In . SVG Version: 1.2.0 Build 154)  -->
  <g>
    <g id="Capa_1">
      <g>
        <path d="M31,2.7v26.8h-6.1l-9.7-14.1h-.2v14.1h-7.3V2.7h6.2l9.5,14h.2V2.7h7.3Z"/>
        <path d="M36.7,29.5V2.7h19.3v5.9h-12v4.6h11v5.9h-11v4.6h12v5.9h-19.2Z"/>
        <path d="M68.6,29.5l-7.9-26.8h8.1l3.7,16.5h.2l4.3-16.5h6.4l4.3,16.5h.2l3.7-16.5h8.1l-7.9,26.8h-7l-4.5-14.9h-.2l-4.5,14.9h-7Z"/>
        <path d="M103.2,2.7h8.1l5.2,10.9h.2l5.2-10.9h8.1l-9.8,18.3v8.4h-7.2v-8.4l-9.8-18.3Z"/>
        <path d="M157.6,16.1c0,3-.6,5.5-1.7,7.5-1.2,2-2.7,3.6-4.7,4.6-2,1.1-4.2,1.6-6.6,1.6s-4.6-.5-6.6-1.6c-2-1.1-3.5-2.6-4.7-4.7s-1.7-4.5-1.7-7.5.6-5.5,1.7-7.5c1.2-2,2.7-3.6,4.7-4.6,2-1,4.2-1.6,6.6-1.6s4.6.5,6.6,1.6c2,1.1,3.5,2.6,4.7,4.6,1.2,2,1.7,4.6,1.7,7.5ZM150.1,16.1c0-1.6-.2-3-.6-4.1-.4-1.1-1-1.9-1.9-2.5s-1.8-.9-3-.9-2.2.3-3,.9-1.4,1.4-1.9,2.5c-.4,1.1-.6,2.5-.6,4.1s.2,3,.6,4.1c.4,1.1,1,1.9,1.9,2.5.8.6,1.8.9,3,.9s2.2-.3,3-.9c.8-.6,1.4-1.4,1.9-2.5.4-1.1.6-2.5.6-4.1Z"/>
        <path d="M163.1,29.5V2.7h11.6c2,0,3.7.4,5.2,1.1,1.5.7,2.6,1.8,3.5,3.1.8,1.4,1.2,3,1.2,4.9s-.4,3.5-1.3,4.8c-.8,1.3-2,2.3-3.6,3-1.5.7-3.3,1-5.4,1h-6.9v-5.6h5.4c.9,0,1.6-.1,2.2-.3s1.1-.6,1.4-1c.3-.5.5-1.1.5-1.8s-.2-1.4-.5-1.9c-.3-.5-.8-.8-1.4-1.1s-1.3-.3-2.2-.3h-2.6v21h-7.3ZM178.8,17.2l6.7,12.3h-7.9l-6.5-12.3h7.7Z"/>
        <path d="M189.9,29.5V2.7h7.3v10.8h.4l8-10.8h8.5l-9,11.9,9.3,14.8h-8.7l-6-10-2.4,3.1v6.9h-7.3Z"/>
      </g>
      <g>
        <path class="cls-1" d="M8,43.8l.4-2.6h12.3l-.4,2.6h-4.6l-2,12.4h-3.1l2-12.4h-4.6Z"/>
        <path class="cls-1" d="M44.7,48.9c-.3,1.6-.8,3-1.6,4.1s-1.7,2-2.9,2.5c-1.1.6-2.3.9-3.6.9s-2.5-.3-3.5-.9-1.7-1.5-2.1-2.7c-.4-1.2-.5-2.6-.2-4.2.3-1.6.8-3,1.6-4.1s1.7-2,2.9-2.6c1.1-.6,2.3-.9,3.7-.9s2.5.3,3.5.9c1,.6,1.7,1.5,2.1,2.7s.5,2.6.2,4.3ZM41.6,48.5c.2-1,.2-1.9,0-2.6-.2-.7-.5-1.2-1-1.6s-1.1-.5-1.8-.5-1.5.2-2.2.6-1.2,1-1.7,1.7-.8,1.7-.9,2.8c-.2,1-.2,1.9,0,2.6.2.7.5,1.2,1,1.6.5.4,1.1.5,1.8.5s1.5-.2,2.2-.6c.7-.4,1.2-1,1.7-1.7.5-.8.8-1.7.9-2.8Z"/>
        <path class="cls-1" d="M67,41.2h3.2l-1.6,9.7c-.2,1.1-.6,2-1.3,2.9-.7.8-1.5,1.5-2.5,1.9-1,.5-2.1.7-3.4.7s-2.3-.2-3.1-.7c-.9-.5-1.5-1.1-1.8-1.9-.4-.8-.5-1.8-.3-2.9l1.6-9.7h3.2l-1.6,9.5c0,.6,0,1.1.1,1.5.2.4.5.8.9,1,.4.3.9.4,1.5.4s1.2-.1,1.7-.4c.5-.3.9-.6,1.2-1,.3-.4.5-.9.6-1.5l1.6-9.5Z"/>
        <path class="cls-1" d="M79.8,56.2l2.5-15h5.9c1.1,0,2.1.2,2.8.6.7.4,1.2,1,1.5,1.7.3.7.4,1.6.2,2.6-.2,1-.5,1.8-1.1,2.6-.5.7-1.3,1.3-2.1,1.6-.9.4-1.9.6-3,.6h-4l.4-2.5h3.4c.6,0,1.1,0,1.5-.2.4-.2.8-.4,1-.7s.4-.7.5-1.2c0-.5,0-.9,0-1.3-.1-.3-.4-.6-.8-.8-.4-.2-.9-.3-1.5-.3h-2.1l-2.1,12.4h-3.2ZM89,49.4l2.6,6.8h-3.5l-2.5-6.8h3.4Z"/>
        <path class="cls-1" d="M108.5,41.2l-2.5,15h-3.2l2.5-15h3.2Z"/>
        <path class="cls-1" d="M128,45.6c0-.6-.2-1.1-.5-1.4-.4-.3-.9-.5-1.7-.5s-1,0-1.3.2c-.4.1-.7.3-.9.6-.2.3-.4.5-.4.9,0,.3,0,.5,0,.7,0,.2.2.4.4.5s.4.3.7.4c.3.1.6.2.9.3l1.3.3c.6.1,1.2.3,1.7.6.5.2.9.5,1.3.9.3.4.6.8.7,1.3.1.5.2,1,0,1.7-.2.9-.5,1.7-1.1,2.4s-1.3,1.2-2.2,1.6-2,.6-3.2.6-2.2-.2-3.1-.6c-.8-.4-1.4-.9-1.8-1.7-.4-.7-.5-1.6-.3-2.7h3.1c0,.5,0,.9.2,1.3s.5.6.9.8.9.3,1.4.3,1,0,1.4-.2c.4-.2.8-.4,1-.7.3-.3.4-.6.5-1,0-.3,0-.6-.1-.8s-.4-.4-.8-.6c-.4-.2-.8-.3-1.3-.4l-1.6-.4c-1.2-.3-2.1-.8-2.7-1.4-.6-.7-.8-1.5-.7-2.6.2-.9.5-1.7,1.1-2.4.6-.7,1.4-1.2,2.3-1.6.9-.4,1.9-.6,3-.6s2,.2,2.8.6c.8.4,1.3.9,1.7,1.6.3.7.5,1.5.3,2.4h-3Z"/>
        <path class="cls-1" d="M143.6,41.2h3.9l2.5,10.1h.2l5.8-10.1h3.9l-2.5,15h-3.1l1.6-9.7h-.1l-5.5,9.7h-2.1l-2.3-9.7h-.1l-1.6,9.8h-3.1l2.5-15Z"/>
      </g>
      <g>
        <path d="M210.1,42.1c-1.1-.3-2.2-.5-3.3-.5l-26,.3c-.8,0-1.1-.5-1.5-1.2-.7-1.2-1.8-3-2.1-3.6-.5-.9-2.5-1.3-2.5,0v7.3c.1,2.4,5,3.9,14.7,3.8.8,0,1.9,0,2.8,0l-6.8,10c-.7.9-.6,1.4-.2,1.4h1.4c.7,0,2-.6,2.9-1.4l11.4-10.2c7-.2,13.6-.7,13.6-1.7,0-1.3-1.5-3.3-4.4-4.3h0Z"/>
        <path d="M187.7,34.2c-.5-.2-1-.4-1.4-.4h-1.4c-.4,0-.5.4.2,1.4l3.6,5h6.4c0,0-5.9-5.1-5.9-5.1-.5-.4-1-.7-1.5-.9h0Z"/>
      </g>
    </g>
  </g>
</svg>